<?xml version="1.0" encoding="utf-8"?>
<!-- Generator: Adobe Illustrator 21.0.2, SVG Export Plug-In . SVG Version: 6.00 Build 0)  -->
<svg version="1.1" id="Layer_1" xmlns="http://www.w3.org/2000/svg" xmlns:xlink="http://www.w3.org/1999/xlink" x="0px" y="0px"
	 viewBox="0 0 500 135" style="enable-background:new 0 0 500 135;" xml:space="preserve">
<style type="text/css">
	.st0{fill:#FFA500;}
	.st1{fill:#FFFFFF;}
	.st2{font-family:'Roboto-Black';}
	.st3{font-size:119.567px;}
</style>
<g>
	<path class="st0" d="M432.7,18.3L432.7,18.3c-20-20-52.5-20-72.5,0l0,0c-20,20-20,52.5,0,72.5l36.2,40.7l36.2-40.7
		C452.7,70.8,452.7,38.4,432.7,18.3z M413.7,71.9L413.7,71.9c-9.5,9.5-25,9.5-34.6,0l0,0c-9.5-9.5-9.5-25,0-34.6l0,0
		c9.5-9.5,25-9.5,34.6,0l0,0C423.3,46.8,423.3,62.3,413.7,71.9z"/>
	<text transform="matrix(1 0 0 1 1.6704 102.3605)" class="st1 st2 st3">Tripsz</text>
	<text transform="matrix(1 0 0 1 453.0249 102.3605)" class="st1 st2 st3">r</text>
</g>
</svg>
